%TF.GenerationSoftware,KiCad,Pcbnew,8.0.5*%
%TF.CreationDate,2025-06-10T09:57:11+02:00*%
%TF.ProjectId,SMA-Filter,534d412d-4669-46c7-9465-722e6b696361,rev?*%
%TF.SameCoordinates,Original*%
%TF.FileFunction,Drillmap*%
%TF.FilePolarity,Positive*%
%FSLAX45Y45*%
G04 Gerber Fmt 4.5, Leading zero omitted, Abs format (unit mm)*
G04 Created by KiCad (PCBNEW 8.0.5) date 2025-06-10 09:57:11*
%MOMM*%
%LPD*%
G01*
G04 APERTURE LIST*
%ADD10C,0.050000*%
%ADD11C,0.200000*%
G04 APERTURE END LIST*
D10*
X9677400Y-7493000D02*
X9677400Y-8559800D01*
X9677400Y-7493000D02*
X11480800Y-7493000D01*
X11480800Y-7493000D02*
X11480800Y-8559800D01*
X9677400Y-8559800D02*
X11480800Y-8559800D01*
D11*
X9935677Y-8873784D02*
X9935677Y-8673784D01*
X9935677Y-8673784D02*
X9983296Y-8673784D01*
X9983296Y-8673784D02*
X10011867Y-8683308D01*
X10011867Y-8683308D02*
X10030915Y-8702355D01*
X10030915Y-8702355D02*
X10040439Y-8721403D01*
X10040439Y-8721403D02*
X10049963Y-8759498D01*
X10049963Y-8759498D02*
X10049963Y-8788070D01*
X10049963Y-8788070D02*
X10040439Y-8826165D01*
X10040439Y-8826165D02*
X10030915Y-8845212D01*
X10030915Y-8845212D02*
X10011867Y-8864260D01*
X10011867Y-8864260D02*
X9983296Y-8873784D01*
X9983296Y-8873784D02*
X9935677Y-8873784D01*
X10135677Y-8873784D02*
X10135677Y-8740450D01*
X10135677Y-8778546D02*
X10145201Y-8759498D01*
X10145201Y-8759498D02*
X10154724Y-8749974D01*
X10154724Y-8749974D02*
X10173772Y-8740450D01*
X10173772Y-8740450D02*
X10192820Y-8740450D01*
X10259486Y-8873784D02*
X10259486Y-8740450D01*
X10259486Y-8673784D02*
X10249963Y-8683308D01*
X10249963Y-8683308D02*
X10259486Y-8692831D01*
X10259486Y-8692831D02*
X10269010Y-8683308D01*
X10269010Y-8683308D02*
X10259486Y-8673784D01*
X10259486Y-8673784D02*
X10259486Y-8692831D01*
X10383296Y-8873784D02*
X10364248Y-8864260D01*
X10364248Y-8864260D02*
X10354724Y-8845212D01*
X10354724Y-8845212D02*
X10354724Y-8673784D01*
X10488058Y-8873784D02*
X10469010Y-8864260D01*
X10469010Y-8864260D02*
X10459486Y-8845212D01*
X10459486Y-8845212D02*
X10459486Y-8673784D01*
X10716629Y-8873784D02*
X10716629Y-8673784D01*
X10716629Y-8673784D02*
X10783296Y-8816641D01*
X10783296Y-8816641D02*
X10849963Y-8673784D01*
X10849963Y-8673784D02*
X10849963Y-8873784D01*
X11030915Y-8873784D02*
X11030915Y-8769022D01*
X11030915Y-8769022D02*
X11021391Y-8749974D01*
X11021391Y-8749974D02*
X11002344Y-8740450D01*
X11002344Y-8740450D02*
X10964248Y-8740450D01*
X10964248Y-8740450D02*
X10945201Y-8749974D01*
X11030915Y-8864260D02*
X11011867Y-8873784D01*
X11011867Y-8873784D02*
X10964248Y-8873784D01*
X10964248Y-8873784D02*
X10945201Y-8864260D01*
X10945201Y-8864260D02*
X10935677Y-8845212D01*
X10935677Y-8845212D02*
X10935677Y-8826165D01*
X10935677Y-8826165D02*
X10945201Y-8807117D01*
X10945201Y-8807117D02*
X10964248Y-8797593D01*
X10964248Y-8797593D02*
X11011867Y-8797593D01*
X11011867Y-8797593D02*
X11030915Y-8788070D01*
X11126153Y-8740450D02*
X11126153Y-8940450D01*
X11126153Y-8749974D02*
X11145201Y-8740450D01*
X11145201Y-8740450D02*
X11183296Y-8740450D01*
X11183296Y-8740450D02*
X11202343Y-8749974D01*
X11202343Y-8749974D02*
X11211867Y-8759498D01*
X11211867Y-8759498D02*
X11221391Y-8778546D01*
X11221391Y-8778546D02*
X11221391Y-8835689D01*
X11221391Y-8835689D02*
X11211867Y-8854736D01*
X11211867Y-8854736D02*
X11202343Y-8864260D01*
X11202343Y-8864260D02*
X11183296Y-8873784D01*
X11183296Y-8873784D02*
X11145201Y-8873784D01*
X11145201Y-8873784D02*
X11126153Y-8864260D01*
X11307105Y-8854736D02*
X11316629Y-8864260D01*
X11316629Y-8864260D02*
X11307105Y-8873784D01*
X11307105Y-8873784D02*
X11297582Y-8864260D01*
X11297582Y-8864260D02*
X11307105Y-8854736D01*
X11307105Y-8854736D02*
X11307105Y-8873784D01*
X11307105Y-8749974D02*
X11316629Y-8759498D01*
X11316629Y-8759498D02*
X11307105Y-8769022D01*
X11307105Y-8769022D02*
X11297582Y-8759498D01*
X11297582Y-8759498D02*
X11307105Y-8749974D01*
X11307105Y-8749974D02*
X11307105Y-8769022D01*
M02*
