%TF.GenerationSoftware,KiCad,Pcbnew,8.0.5*%
%TF.CreationDate,2025-06-10T11:56:57+02:00*%
%TF.ProjectId,SMA-Filter,534d412d-4669-46c7-9465-722e6b696361,rev?*%
%TF.SameCoordinates,Original*%
%TF.FileFunction,Legend,Top*%
%TF.FilePolarity,Positive*%
%FSLAX46Y46*%
G04 Gerber Fmt 4.6, Leading zero omitted, Abs format (unit mm)*
G04 Created by KiCad (PCBNEW 8.0.5) date 2025-06-10 11:56:57*
%MOMM*%
%LPD*%
G01*
G04 APERTURE LIST*
%ADD10C,0.125000*%
%ADD11C,0.062500*%
%ADD12C,0.200000*%
G04 APERTURE END LIST*
D10*
X103098274Y-76700528D02*
X103169702Y-76724337D01*
X103169702Y-76724337D02*
X103288750Y-76724337D01*
X103288750Y-76724337D02*
X103336369Y-76700528D01*
X103336369Y-76700528D02*
X103360178Y-76676718D01*
X103360178Y-76676718D02*
X103383988Y-76629099D01*
X103383988Y-76629099D02*
X103383988Y-76581480D01*
X103383988Y-76581480D02*
X103360178Y-76533861D01*
X103360178Y-76533861D02*
X103336369Y-76510051D01*
X103336369Y-76510051D02*
X103288750Y-76486242D01*
X103288750Y-76486242D02*
X103193512Y-76462432D01*
X103193512Y-76462432D02*
X103145893Y-76438623D01*
X103145893Y-76438623D02*
X103122083Y-76414813D01*
X103122083Y-76414813D02*
X103098274Y-76367194D01*
X103098274Y-76367194D02*
X103098274Y-76319575D01*
X103098274Y-76319575D02*
X103122083Y-76271956D01*
X103122083Y-76271956D02*
X103145893Y-76248147D01*
X103145893Y-76248147D02*
X103193512Y-76224337D01*
X103193512Y-76224337D02*
X103312559Y-76224337D01*
X103312559Y-76224337D02*
X103383988Y-76248147D01*
X103598273Y-76724337D02*
X103598273Y-76224337D01*
X103598273Y-76224337D02*
X103764940Y-76581480D01*
X103764940Y-76581480D02*
X103931606Y-76224337D01*
X103931606Y-76224337D02*
X103931606Y-76724337D01*
X104145893Y-76581480D02*
X104383988Y-76581480D01*
X104098274Y-76724337D02*
X104264940Y-76224337D01*
X104264940Y-76224337D02*
X104431607Y-76724337D01*
X104598273Y-76533861D02*
X104979226Y-76533861D01*
X105383988Y-76462432D02*
X105217321Y-76462432D01*
X105217321Y-76724337D02*
X105217321Y-76224337D01*
X105217321Y-76224337D02*
X105455416Y-76224337D01*
X105645892Y-76724337D02*
X105645892Y-76391004D01*
X105645892Y-76224337D02*
X105622083Y-76248147D01*
X105622083Y-76248147D02*
X105645892Y-76271956D01*
X105645892Y-76271956D02*
X105669702Y-76248147D01*
X105669702Y-76248147D02*
X105645892Y-76224337D01*
X105645892Y-76224337D02*
X105645892Y-76271956D01*
X105955416Y-76724337D02*
X105907797Y-76700528D01*
X105907797Y-76700528D02*
X105883987Y-76652908D01*
X105883987Y-76652908D02*
X105883987Y-76224337D01*
X106074464Y-76391004D02*
X106264940Y-76391004D01*
X106145892Y-76224337D02*
X106145892Y-76652908D01*
X106145892Y-76652908D02*
X106169702Y-76700528D01*
X106169702Y-76700528D02*
X106217321Y-76724337D01*
X106217321Y-76724337D02*
X106264940Y-76724337D01*
X106622082Y-76700528D02*
X106574463Y-76724337D01*
X106574463Y-76724337D02*
X106479225Y-76724337D01*
X106479225Y-76724337D02*
X106431606Y-76700528D01*
X106431606Y-76700528D02*
X106407797Y-76652908D01*
X106407797Y-76652908D02*
X106407797Y-76462432D01*
X106407797Y-76462432D02*
X106431606Y-76414813D01*
X106431606Y-76414813D02*
X106479225Y-76391004D01*
X106479225Y-76391004D02*
X106574463Y-76391004D01*
X106574463Y-76391004D02*
X106622082Y-76414813D01*
X106622082Y-76414813D02*
X106645892Y-76462432D01*
X106645892Y-76462432D02*
X106645892Y-76510051D01*
X106645892Y-76510051D02*
X106407797Y-76557670D01*
X106860177Y-76724337D02*
X106860177Y-76391004D01*
X106860177Y-76486242D02*
X106883987Y-76438623D01*
X106883987Y-76438623D02*
X106907796Y-76414813D01*
X106907796Y-76414813D02*
X106955415Y-76391004D01*
X106955415Y-76391004D02*
X107003034Y-76391004D01*
X107503034Y-76391004D02*
X107622082Y-76724337D01*
X107622082Y-76724337D02*
X107741129Y-76391004D01*
X108193510Y-76724337D02*
X107907796Y-76724337D01*
X108050653Y-76724337D02*
X108050653Y-76224337D01*
X108050653Y-76224337D02*
X108003034Y-76295766D01*
X108003034Y-76295766D02*
X107955415Y-76343385D01*
X107955415Y-76343385D02*
X107907796Y-76367194D01*
X103217321Y-77029309D02*
X103312559Y-77029309D01*
X103312559Y-77029309D02*
X103360178Y-77053119D01*
X103360178Y-77053119D02*
X103407797Y-77100738D01*
X103407797Y-77100738D02*
X103431607Y-77195976D01*
X103431607Y-77195976D02*
X103431607Y-77362642D01*
X103431607Y-77362642D02*
X103407797Y-77457880D01*
X103407797Y-77457880D02*
X103360178Y-77505500D01*
X103360178Y-77505500D02*
X103312559Y-77529309D01*
X103312559Y-77529309D02*
X103217321Y-77529309D01*
X103217321Y-77529309D02*
X103169702Y-77505500D01*
X103169702Y-77505500D02*
X103122083Y-77457880D01*
X103122083Y-77457880D02*
X103098274Y-77362642D01*
X103098274Y-77362642D02*
X103098274Y-77195976D01*
X103098274Y-77195976D02*
X103122083Y-77100738D01*
X103122083Y-77100738D02*
X103169702Y-77053119D01*
X103169702Y-77053119D02*
X103217321Y-77029309D01*
X103645893Y-77267404D02*
X103812560Y-77267404D01*
X103883988Y-77529309D02*
X103645893Y-77529309D01*
X103645893Y-77529309D02*
X103645893Y-77029309D01*
X103645893Y-77029309D02*
X103883988Y-77029309D01*
X104122084Y-77529309D02*
X104217322Y-77529309D01*
X104217322Y-77529309D02*
X104264941Y-77505500D01*
X104264941Y-77505500D02*
X104288750Y-77481690D01*
X104288750Y-77481690D02*
X104336369Y-77410261D01*
X104336369Y-77410261D02*
X104360179Y-77315023D01*
X104360179Y-77315023D02*
X104360179Y-77124547D01*
X104360179Y-77124547D02*
X104336369Y-77076928D01*
X104336369Y-77076928D02*
X104312560Y-77053119D01*
X104312560Y-77053119D02*
X104264941Y-77029309D01*
X104264941Y-77029309D02*
X104169703Y-77029309D01*
X104169703Y-77029309D02*
X104122084Y-77053119D01*
X104122084Y-77053119D02*
X104098274Y-77076928D01*
X104098274Y-77076928D02*
X104074465Y-77124547D01*
X104074465Y-77124547D02*
X104074465Y-77243595D01*
X104074465Y-77243595D02*
X104098274Y-77291214D01*
X104098274Y-77291214D02*
X104122084Y-77315023D01*
X104122084Y-77315023D02*
X104169703Y-77338833D01*
X104169703Y-77338833D02*
X104264941Y-77338833D01*
X104264941Y-77338833D02*
X104312560Y-77315023D01*
X104312560Y-77315023D02*
X104336369Y-77291214D01*
X104336369Y-77291214D02*
X104360179Y-77243595D01*
X104550655Y-77505500D02*
X104622083Y-77529309D01*
X104622083Y-77529309D02*
X104741131Y-77529309D01*
X104741131Y-77529309D02*
X104788750Y-77505500D01*
X104788750Y-77505500D02*
X104812559Y-77481690D01*
X104812559Y-77481690D02*
X104836369Y-77434071D01*
X104836369Y-77434071D02*
X104836369Y-77386452D01*
X104836369Y-77386452D02*
X104812559Y-77338833D01*
X104812559Y-77338833D02*
X104788750Y-77315023D01*
X104788750Y-77315023D02*
X104741131Y-77291214D01*
X104741131Y-77291214D02*
X104645893Y-77267404D01*
X104645893Y-77267404D02*
X104598274Y-77243595D01*
X104598274Y-77243595D02*
X104574464Y-77219785D01*
X104574464Y-77219785D02*
X104550655Y-77172166D01*
X104550655Y-77172166D02*
X104550655Y-77124547D01*
X104550655Y-77124547D02*
X104574464Y-77076928D01*
X104574464Y-77076928D02*
X104598274Y-77053119D01*
X104598274Y-77053119D02*
X104645893Y-77029309D01*
X104645893Y-77029309D02*
X104764940Y-77029309D01*
X104764940Y-77029309D02*
X104836369Y-77053119D01*
X105026845Y-77386452D02*
X105264940Y-77386452D01*
X104979226Y-77529309D02*
X105145892Y-77029309D01*
X105145892Y-77029309D02*
X105312559Y-77529309D01*
X105479225Y-77029309D02*
X105479225Y-77434071D01*
X105479225Y-77434071D02*
X105503035Y-77481690D01*
X105503035Y-77481690D02*
X105526844Y-77505500D01*
X105526844Y-77505500D02*
X105574463Y-77529309D01*
X105574463Y-77529309D02*
X105669701Y-77529309D01*
X105669701Y-77529309D02*
X105717320Y-77505500D01*
X105717320Y-77505500D02*
X105741130Y-77481690D01*
X105741130Y-77481690D02*
X105764939Y-77434071D01*
X105764939Y-77434071D02*
X105764939Y-77029309D01*
X106479225Y-77029309D02*
X106526844Y-77029309D01*
X106526844Y-77029309D02*
X106574463Y-77053119D01*
X106574463Y-77053119D02*
X106598273Y-77076928D01*
X106598273Y-77076928D02*
X106622082Y-77124547D01*
X106622082Y-77124547D02*
X106645892Y-77219785D01*
X106645892Y-77219785D02*
X106645892Y-77338833D01*
X106645892Y-77338833D02*
X106622082Y-77434071D01*
X106622082Y-77434071D02*
X106598273Y-77481690D01*
X106598273Y-77481690D02*
X106574463Y-77505500D01*
X106574463Y-77505500D02*
X106526844Y-77529309D01*
X106526844Y-77529309D02*
X106479225Y-77529309D01*
X106479225Y-77529309D02*
X106431606Y-77505500D01*
X106431606Y-77505500D02*
X106407797Y-77481690D01*
X106407797Y-77481690D02*
X106383987Y-77434071D01*
X106383987Y-77434071D02*
X106360178Y-77338833D01*
X106360178Y-77338833D02*
X106360178Y-77219785D01*
X106360178Y-77219785D02*
X106383987Y-77124547D01*
X106383987Y-77124547D02*
X106407797Y-77076928D01*
X106407797Y-77076928D02*
X106431606Y-77053119D01*
X106431606Y-77053119D02*
X106479225Y-77029309D01*
X107074463Y-77195976D02*
X107074463Y-77529309D01*
X106955415Y-77005500D02*
X106836368Y-77362642D01*
X106836368Y-77362642D02*
X107145891Y-77362642D01*
X107693510Y-77005500D02*
X107264939Y-77648357D01*
X107836368Y-77076928D02*
X107860177Y-77053119D01*
X107860177Y-77053119D02*
X107907796Y-77029309D01*
X107907796Y-77029309D02*
X108026844Y-77029309D01*
X108026844Y-77029309D02*
X108074463Y-77053119D01*
X108074463Y-77053119D02*
X108098272Y-77076928D01*
X108098272Y-77076928D02*
X108122082Y-77124547D01*
X108122082Y-77124547D02*
X108122082Y-77172166D01*
X108122082Y-77172166D02*
X108098272Y-77243595D01*
X108098272Y-77243595D02*
X107812558Y-77529309D01*
X107812558Y-77529309D02*
X108122082Y-77529309D01*
X108574462Y-77029309D02*
X108336367Y-77029309D01*
X108336367Y-77029309D02*
X108312558Y-77267404D01*
X108312558Y-77267404D02*
X108336367Y-77243595D01*
X108336367Y-77243595D02*
X108383986Y-77219785D01*
X108383986Y-77219785D02*
X108503034Y-77219785D01*
X108503034Y-77219785D02*
X108550653Y-77243595D01*
X108550653Y-77243595D02*
X108574462Y-77267404D01*
X108574462Y-77267404D02*
X108598272Y-77315023D01*
X108598272Y-77315023D02*
X108598272Y-77434071D01*
X108598272Y-77434071D02*
X108574462Y-77481690D01*
X108574462Y-77481690D02*
X108550653Y-77505500D01*
X108550653Y-77505500D02*
X108503034Y-77529309D01*
X108503034Y-77529309D02*
X108383986Y-77529309D01*
X108383986Y-77529309D02*
X108336367Y-77505500D01*
X108336367Y-77505500D02*
X108312558Y-77481690D01*
D11*
X107511476Y-81515452D02*
X107428142Y-81515452D01*
X107428142Y-81646404D02*
X107428142Y-81396404D01*
X107428142Y-81396404D02*
X107547190Y-81396404D01*
X107761476Y-81646404D02*
X107642428Y-81646404D01*
X107642428Y-81646404D02*
X107642428Y-81396404D01*
X107975762Y-81646404D02*
X107832905Y-81646404D01*
X107904333Y-81646404D02*
X107904333Y-81396404D01*
X107904333Y-81396404D02*
X107880524Y-81432119D01*
X107880524Y-81432119D02*
X107856714Y-81455928D01*
X107856714Y-81455928D02*
X107832905Y-81467833D01*
D12*
%TO.C,FL1*%
X104667000Y-81164000D02*
G75*
G02*
X104467000Y-81164000I-100000J0D01*
G01*
X104467000Y-81164000D02*
G75*
G02*
X104667000Y-81164000I100000J0D01*
G01*
%TD*%
M02*
