M48
; DRILL file {KiCad 8.0.5} date 2025-06-10T09:57:11+0200
; FORMAT={-:-/ absolute / inch / decimal}
; #@! TF.CreationDate,2025-06-10T09:57:11+02:00
; #@! TF.GenerationSoftware,Kicad,Pcbnew,8.0.5
; #@! TF.FileFunction,Plated,1,2,PTH
FMAT,2
INCH
; #@! TA.AperFunction,Plated,PTH,ViaDrill
T1C0.0030
%
G90
G05
T1
X4.0298Y-3.1383
X4.0298Y-3.1817
X4.0398Y-3.1383
X4.0398Y-3.1817
X4.0497Y-3.1383
X4.0497Y-3.1817
X4.0597Y-3.1383
X4.0597Y-3.1817
X4.0697Y-3.1383
X4.0697Y-3.1817
X4.0797Y-3.1383
X4.0797Y-3.1817
X4.0897Y-3.1383
X4.0897Y-3.1817
X4.0997Y-3.1383
X4.0997Y-3.1817
X4.1096Y-3.1383
X4.1096Y-3.1817
X4.1196Y-3.1383
X4.1196Y-3.1817
X4.1296Y-3.1383
X4.1296Y-3.1817
X4.23Y-3.1383
X4.23Y-3.1817
X4.24Y-3.1383
X4.24Y-3.1817
X4.2499Y-3.1383
X4.2499Y-3.1817
X4.2599Y-3.1383
X4.2599Y-3.1817
X4.2699Y-3.1383
X4.2699Y-3.1817
X4.2798Y-3.1383
X4.2798Y-3.1817
X4.2898Y-3.1383
X4.2898Y-3.1817
X4.2997Y-3.1383
X4.2997Y-3.1817
X4.3097Y-3.1383
X4.3097Y-3.1817
X4.3197Y-3.1383
X4.3197Y-3.1817
X4.3296Y-3.1383
X4.3296Y-3.1817
M30
