%TF.GenerationSoftware,KiCad,Pcbnew,8.0.5*%
%TF.CreationDate,2025-06-10T09:57:13+02:00*%
%TF.ProjectId,SMA-Filter,534d412d-4669-46c7-9465-722e6b696361,rev?*%
%TF.SameCoordinates,Original*%
%TF.FileFunction,Copper,L1,Top*%
%TF.FilePolarity,Positive*%
%FSLAX46Y46*%
G04 Gerber Fmt 4.6, Leading zero omitted, Abs format (unit mm)*
G04 Created by KiCad (PCBNEW 8.0.5) date 2025-06-10 09:57:13*
%MOMM*%
%LPD*%
G01*
G04 APERTURE LIST*
%TA.AperFunction,SMDPad,CuDef*%
%ADD10R,0.350000X1.000000*%
%TD*%
%TA.AperFunction,SMDPad,CuDef*%
%ADD11R,1.000000X0.350000*%
%TD*%
%TA.AperFunction,SMDPad,CuDef*%
%ADD12R,5.000000X0.900000*%
%TD*%
%TA.AperFunction,SMDPad,CuDef*%
%ADD13R,5.000000X1.400000*%
%TD*%
%TA.AperFunction,SMDPad,CuDef*%
%ADD14R,4.100000X0.900000*%
%TD*%
%TA.AperFunction,SMDPad,CuDef*%
%ADD15R,4.100000X1.250000*%
%TD*%
%TA.AperFunction,ViaPad*%
%ADD16C,0.120000*%
%TD*%
%TA.AperFunction,Conductor*%
%ADD17C,0.500000*%
%TD*%
%TA.AperFunction,Conductor*%
%ADD18C,0.200000*%
%TD*%
G04 APERTURE END LIST*
D10*
%TO.P,FL1,1,GND*%
%TO.N,GND*%
X105517000Y-81164000D03*
%TO.P,FL1,2,NC*%
%TO.N,unconnected-(FL1-NC-Pad2)*%
X106167000Y-81164000D03*
%TO.P,FL1,3,GND*%
%TO.N,GND*%
X106817000Y-81164000D03*
D11*
%TO.P,FL1,4*%
%TO.N,Net-(FL1-Pad4)*%
X107442000Y-80264000D03*
D10*
%TO.P,FL1,5,GND*%
%TO.N,GND*%
X106817000Y-79364000D03*
%TO.P,FL1,6,NC*%
%TO.N,unconnected-(FL1-NC-Pad6)*%
X106167000Y-79364000D03*
%TO.P,FL1,7,GND*%
%TO.N,GND*%
X105517000Y-79364000D03*
D11*
%TO.P,FL1,8*%
%TO.N,Net-(FL1-Pad8)*%
X104892000Y-80264000D03*
%TD*%
D12*
%TO.P,J2,1*%
%TO.N,Net-(FL1-Pad8)*%
X99314000Y-80264000D03*
D13*
%TO.P,J2,2*%
%TO.N,GND*%
X99314000Y-76014000D03*
%TO.P,J2,3*%
X99314000Y-84514000D03*
%TD*%
D14*
%TO.P,J1,1*%
%TO.N,Net-(FL1-Pad4)*%
X112522000Y-80283000D03*
D15*
%TO.P,J1,2*%
%TO.N,GND*%
X112522000Y-83058000D03*
%TO.P,J1,3*%
X112522000Y-77508000D03*
%TD*%
D16*
%TO.N,GND*%
X102356545Y-80814000D03*
X102610090Y-80814000D03*
X102863636Y-80814000D03*
X103117181Y-80814000D03*
X103370727Y-80814000D03*
X103624272Y-80814000D03*
X103877818Y-80814000D03*
X104131363Y-80814000D03*
X104384909Y-80814000D03*
X104638454Y-80814000D03*
X104892000Y-80814000D03*
X104638454Y-79714000D03*
X104384909Y-79714000D03*
X104131363Y-79714000D03*
X103877818Y-79714000D03*
X103624272Y-79714000D03*
X103370727Y-79714000D03*
X103117181Y-79714000D03*
X102863636Y-79714000D03*
X102610090Y-79714000D03*
X102356545Y-79714000D03*
X104892000Y-79714000D03*
X107695050Y-80814000D03*
X107948100Y-80814000D03*
X108201150Y-80814000D03*
X108454200Y-80814000D03*
X108707250Y-80814000D03*
X108960300Y-80814000D03*
X109213350Y-80814000D03*
X109466400Y-80814000D03*
X109719450Y-80814000D03*
X109972500Y-80814000D03*
X107442000Y-80814000D03*
X109972500Y-79714000D03*
X109719450Y-79714000D03*
X109466400Y-79714000D03*
X109213350Y-79714000D03*
X108960300Y-79714000D03*
X108707250Y-79714000D03*
X108454200Y-79714000D03*
X108201150Y-79714000D03*
X107948100Y-79714000D03*
X107695050Y-79714000D03*
X107442000Y-79714000D03*
%TD*%
D17*
%TO.N,Net-(FL1-Pad4)*%
X107442000Y-80264000D02*
X112503000Y-80264000D01*
D18*
X112503000Y-80264000D02*
X112522000Y-80283000D01*
D17*
%TO.N,Net-(FL1-Pad8)*%
X104892000Y-80264000D02*
X99314000Y-80264000D01*
%TD*%
%TA.AperFunction,Conductor*%
%TO.N,GND*%
G36*
X107382691Y-80714500D02*
G01*
X110182645Y-80714500D01*
X110240836Y-80733407D01*
X110276800Y-80782907D01*
X110279740Y-80794174D01*
X110283133Y-80811231D01*
X110283134Y-80811232D01*
X110283134Y-80811233D01*
X110327445Y-80877548D01*
X110327448Y-80877552D01*
X110393769Y-80921867D01*
X110438231Y-80930711D01*
X110452241Y-80933498D01*
X110452246Y-80933498D01*
X110452252Y-80933500D01*
X114208500Y-80933500D01*
X114266691Y-80952407D01*
X114302655Y-81001907D01*
X114307500Y-81032500D01*
X114307500Y-82134000D01*
X114288593Y-82192191D01*
X114239093Y-82228155D01*
X114208500Y-82233000D01*
X112622001Y-82233000D01*
X112622000Y-82233001D01*
X112622000Y-83882999D01*
X112622001Y-83883000D01*
X114208500Y-83883000D01*
X114266691Y-83901907D01*
X114302655Y-83951407D01*
X114307500Y-83982000D01*
X114307500Y-84998500D01*
X114288593Y-85056691D01*
X114239093Y-85092655D01*
X114208500Y-85097500D01*
X102113000Y-85097500D01*
X102054809Y-85078593D01*
X102018845Y-85029093D01*
X102014000Y-84998500D01*
X102014000Y-84614001D01*
X102013999Y-84614000D01*
X99313000Y-84614000D01*
X99254809Y-84595093D01*
X99218845Y-84545593D01*
X99214000Y-84515000D01*
X99214000Y-83614001D01*
X99414000Y-83614001D01*
X99414000Y-84413999D01*
X99414001Y-84414000D01*
X102013999Y-84414000D01*
X102014000Y-84413999D01*
X102014000Y-83794302D01*
X102013999Y-83794299D01*
X102002396Y-83735963D01*
X101958193Y-83669810D01*
X101958189Y-83669806D01*
X101892036Y-83625603D01*
X101833700Y-83614000D01*
X99414001Y-83614000D01*
X99414000Y-83614001D01*
X99214000Y-83614001D01*
X99213999Y-83614000D01*
X97373500Y-83614000D01*
X97315309Y-83595093D01*
X97279345Y-83545593D01*
X97274500Y-83515000D01*
X97274500Y-83158001D01*
X110272000Y-83158001D01*
X110272000Y-83702700D01*
X110283603Y-83761036D01*
X110327806Y-83827189D01*
X110327810Y-83827193D01*
X110393963Y-83871396D01*
X110452299Y-83882999D01*
X110452303Y-83883000D01*
X112421999Y-83883000D01*
X112422000Y-83882999D01*
X112422000Y-83158001D01*
X112421999Y-83158000D01*
X110272001Y-83158000D01*
X110272000Y-83158001D01*
X97274500Y-83158001D01*
X97274500Y-82413299D01*
X110272000Y-82413299D01*
X110272000Y-82957999D01*
X110272001Y-82958000D01*
X112421999Y-82958000D01*
X112422000Y-82957999D01*
X112422000Y-82233001D01*
X112421999Y-82233000D01*
X110452299Y-82233000D01*
X110393963Y-82244603D01*
X110327810Y-82288806D01*
X110327806Y-82288810D01*
X110283603Y-82354963D01*
X110272000Y-82413299D01*
X97274500Y-82413299D01*
X97274500Y-81264001D01*
X105142000Y-81264001D01*
X105142000Y-81683700D01*
X105153603Y-81742036D01*
X105197806Y-81808189D01*
X105197810Y-81808193D01*
X105263963Y-81852396D01*
X105322299Y-81863999D01*
X105322303Y-81864000D01*
X105416999Y-81864000D01*
X105417000Y-81863999D01*
X105417000Y-81264001D01*
X105416999Y-81264000D01*
X105142001Y-81264000D01*
X105142000Y-81264001D01*
X97274500Y-81264001D01*
X97274500Y-81013500D01*
X97293407Y-80955309D01*
X97342907Y-80919345D01*
X97373500Y-80914500D01*
X101833747Y-80914500D01*
X101833748Y-80914500D01*
X101892231Y-80902867D01*
X101958552Y-80858552D01*
X102002867Y-80792231D01*
X102002868Y-80792225D01*
X102006597Y-80783224D01*
X102008236Y-80783903D01*
X102032371Y-80740805D01*
X102087935Y-80715187D01*
X102099575Y-80714500D01*
X104951308Y-80714500D01*
X104951309Y-80714500D01*
X105017376Y-80696797D01*
X105078478Y-80699998D01*
X105126028Y-80738503D01*
X105142000Y-80792423D01*
X105142000Y-81063999D01*
X105142001Y-81064000D01*
X105518000Y-81064000D01*
X105576191Y-81082907D01*
X105612155Y-81132407D01*
X105617000Y-81163000D01*
X105617000Y-81863999D01*
X105617001Y-81864000D01*
X105711697Y-81864000D01*
X105711700Y-81863999D01*
X105770036Y-81852396D01*
X105786548Y-81841363D01*
X105845435Y-81824754D01*
X105896552Y-81841363D01*
X105913064Y-81852396D01*
X105913769Y-81852867D01*
X105958231Y-81861711D01*
X105972241Y-81864498D01*
X105972246Y-81864498D01*
X105972252Y-81864500D01*
X105972253Y-81864500D01*
X106361747Y-81864500D01*
X106361748Y-81864500D01*
X106420231Y-81852867D01*
X106437446Y-81841363D01*
X106496334Y-81824754D01*
X106547450Y-81841362D01*
X106563964Y-81852396D01*
X106563963Y-81852396D01*
X106622299Y-81863999D01*
X106622303Y-81864000D01*
X106716999Y-81864000D01*
X106717000Y-81863999D01*
X106717000Y-81264001D01*
X106917000Y-81264001D01*
X106917000Y-81863999D01*
X106917001Y-81864000D01*
X107011697Y-81864000D01*
X107011700Y-81863999D01*
X107070036Y-81852396D01*
X107136189Y-81808193D01*
X107136193Y-81808189D01*
X107180396Y-81742036D01*
X107191999Y-81683700D01*
X107192000Y-81683697D01*
X107192000Y-81264001D01*
X107191999Y-81264000D01*
X106917001Y-81264000D01*
X106917000Y-81264001D01*
X106717000Y-81264001D01*
X106717000Y-81163000D01*
X106735907Y-81104809D01*
X106785407Y-81068845D01*
X106816000Y-81064000D01*
X107191999Y-81064000D01*
X107192000Y-81063999D01*
X107192000Y-80792423D01*
X107210907Y-80734232D01*
X107260407Y-80698268D01*
X107316623Y-80696797D01*
X107382691Y-80714500D01*
G37*
%TD.AperFunction*%
%TA.AperFunction,Conductor*%
G36*
X114266691Y-75449407D02*
G01*
X114302655Y-75498907D01*
X114307500Y-75529500D01*
X114307500Y-76584000D01*
X114288593Y-76642191D01*
X114239093Y-76678155D01*
X114208500Y-76683000D01*
X112622001Y-76683000D01*
X112622000Y-76683001D01*
X112622000Y-78332999D01*
X112622001Y-78333000D01*
X114208500Y-78333000D01*
X114266691Y-78351907D01*
X114302655Y-78401407D01*
X114307500Y-78432000D01*
X114307500Y-79533500D01*
X114288593Y-79591691D01*
X114239093Y-79627655D01*
X114208500Y-79632500D01*
X110452252Y-79632500D01*
X110452251Y-79632500D01*
X110452241Y-79632501D01*
X110393772Y-79644132D01*
X110393766Y-79644134D01*
X110327451Y-79688445D01*
X110327445Y-79688451D01*
X110277716Y-79762876D01*
X110276088Y-79761788D01*
X110244391Y-79798908D01*
X110192657Y-79813500D01*
X107382691Y-79813500D01*
X107316623Y-79831203D01*
X107255521Y-79828000D01*
X107207971Y-79789495D01*
X107192000Y-79735576D01*
X107192000Y-79464001D01*
X107191999Y-79464000D01*
X106816000Y-79464000D01*
X106757809Y-79445093D01*
X106721845Y-79395593D01*
X106717000Y-79365000D01*
X106717000Y-78664001D01*
X106917000Y-78664001D01*
X106917000Y-79263999D01*
X106917001Y-79264000D01*
X107191999Y-79264000D01*
X107192000Y-79263999D01*
X107192000Y-78844302D01*
X107191999Y-78844299D01*
X107180396Y-78785963D01*
X107136193Y-78719810D01*
X107136189Y-78719806D01*
X107070036Y-78675603D01*
X107011700Y-78664000D01*
X106917001Y-78664000D01*
X106917000Y-78664001D01*
X106717000Y-78664001D01*
X106716999Y-78664000D01*
X106622299Y-78664000D01*
X106563964Y-78675603D01*
X106547450Y-78686638D01*
X106488562Y-78703246D01*
X106437446Y-78686636D01*
X106420234Y-78675135D01*
X106420233Y-78675134D01*
X106420231Y-78675133D01*
X106420227Y-78675132D01*
X106361758Y-78663501D01*
X106361748Y-78663500D01*
X105972252Y-78663500D01*
X105972251Y-78663500D01*
X105972241Y-78663501D01*
X105913772Y-78675132D01*
X105913766Y-78675134D01*
X105896552Y-78686637D01*
X105837663Y-78703246D01*
X105786548Y-78686637D01*
X105770035Y-78675603D01*
X105770036Y-78675603D01*
X105711700Y-78664000D01*
X105617001Y-78664000D01*
X105617000Y-78664001D01*
X105617000Y-79365000D01*
X105598093Y-79423191D01*
X105548593Y-79459155D01*
X105518000Y-79464000D01*
X105142001Y-79464000D01*
X105142000Y-79464001D01*
X105142000Y-79735576D01*
X105123093Y-79793767D01*
X105073593Y-79829731D01*
X105017377Y-79831203D01*
X104951309Y-79813500D01*
X104951307Y-79813500D01*
X102099575Y-79813500D01*
X102041384Y-79794593D01*
X102005420Y-79745093D01*
X102003192Y-79736557D01*
X102002867Y-79735772D01*
X102002867Y-79735769D01*
X101958552Y-79669448D01*
X101920668Y-79644134D01*
X101892233Y-79625134D01*
X101892231Y-79625133D01*
X101892228Y-79625132D01*
X101892227Y-79625132D01*
X101833758Y-79613501D01*
X101833748Y-79613500D01*
X101833747Y-79613500D01*
X97373500Y-79613500D01*
X97315309Y-79594593D01*
X97279345Y-79545093D01*
X97274500Y-79514500D01*
X97274500Y-78844299D01*
X105142000Y-78844299D01*
X105142000Y-79263999D01*
X105142001Y-79264000D01*
X105416999Y-79264000D01*
X105417000Y-79263999D01*
X105417000Y-78664001D01*
X105416999Y-78664000D01*
X105322299Y-78664000D01*
X105263963Y-78675603D01*
X105197810Y-78719806D01*
X105197806Y-78719810D01*
X105153603Y-78785963D01*
X105142000Y-78844299D01*
X97274500Y-78844299D01*
X97274500Y-77608001D01*
X110272000Y-77608001D01*
X110272000Y-78152700D01*
X110283603Y-78211036D01*
X110327806Y-78277189D01*
X110327810Y-78277193D01*
X110393963Y-78321396D01*
X110452299Y-78332999D01*
X110452303Y-78333000D01*
X112421999Y-78333000D01*
X112422000Y-78332999D01*
X112422000Y-77608001D01*
X112421999Y-77608000D01*
X110272001Y-77608000D01*
X110272000Y-77608001D01*
X97274500Y-77608001D01*
X97274500Y-77013000D01*
X97293407Y-76954809D01*
X97342907Y-76918845D01*
X97373500Y-76914000D01*
X99213999Y-76914000D01*
X99214000Y-76913999D01*
X99214000Y-76114001D01*
X99414000Y-76114001D01*
X99414000Y-76913999D01*
X99414001Y-76914000D01*
X101833697Y-76914000D01*
X101833700Y-76913999D01*
X101892036Y-76902396D01*
X101950548Y-76863299D01*
X110272000Y-76863299D01*
X110272000Y-77407999D01*
X110272001Y-77408000D01*
X112421999Y-77408000D01*
X112422000Y-77407999D01*
X112422000Y-76683001D01*
X112421999Y-76683000D01*
X110452299Y-76683000D01*
X110393963Y-76694603D01*
X110327810Y-76738806D01*
X110327806Y-76738810D01*
X110283603Y-76804963D01*
X110272000Y-76863299D01*
X101950548Y-76863299D01*
X101958189Y-76858193D01*
X101958193Y-76858189D01*
X102002396Y-76792036D01*
X102013999Y-76733700D01*
X102014000Y-76733697D01*
X102014000Y-76114001D01*
X102013999Y-76114000D01*
X99414001Y-76114000D01*
X99414000Y-76114001D01*
X99214000Y-76114001D01*
X99214000Y-76013000D01*
X99232907Y-75954809D01*
X99282407Y-75918845D01*
X99313000Y-75914000D01*
X102013999Y-75914000D01*
X102014000Y-75913999D01*
X102014000Y-75529500D01*
X102032907Y-75471309D01*
X102082407Y-75435345D01*
X102113000Y-75430500D01*
X114208500Y-75430500D01*
X114266691Y-75449407D01*
G37*
%TD.AperFunction*%
%TD*%
M02*
