%TF.GenerationSoftware,KiCad,Pcbnew,8.0.5*%
%TF.CreationDate,2025-06-10T11:56:57+02:00*%
%TF.ProjectId,SMA-Filter,534d412d-4669-46c7-9465-722e6b696361,rev?*%
%TF.SameCoordinates,Original*%
%TF.FileFunction,Legend,Bot*%
%TF.FilePolarity,Positive*%
%FSLAX46Y46*%
G04 Gerber Fmt 4.6, Leading zero omitted, Abs format (unit mm)*
G04 Created by KiCad (PCBNEW 8.0.5) date 2025-06-10 11:56:57*
%MOMM*%
%LPD*%
G01*
G04 APERTURE LIST*
%ADD10C,0.125000*%
G04 APERTURE END LIST*
D10*
X109601325Y-76700528D02*
X109529897Y-76724337D01*
X109529897Y-76724337D02*
X109410849Y-76724337D01*
X109410849Y-76724337D02*
X109363230Y-76700528D01*
X109363230Y-76700528D02*
X109339421Y-76676718D01*
X109339421Y-76676718D02*
X109315611Y-76629099D01*
X109315611Y-76629099D02*
X109315611Y-76581480D01*
X109315611Y-76581480D02*
X109339421Y-76533861D01*
X109339421Y-76533861D02*
X109363230Y-76510051D01*
X109363230Y-76510051D02*
X109410849Y-76486242D01*
X109410849Y-76486242D02*
X109506087Y-76462432D01*
X109506087Y-76462432D02*
X109553706Y-76438623D01*
X109553706Y-76438623D02*
X109577516Y-76414813D01*
X109577516Y-76414813D02*
X109601325Y-76367194D01*
X109601325Y-76367194D02*
X109601325Y-76319575D01*
X109601325Y-76319575D02*
X109577516Y-76271956D01*
X109577516Y-76271956D02*
X109553706Y-76248147D01*
X109553706Y-76248147D02*
X109506087Y-76224337D01*
X109506087Y-76224337D02*
X109387040Y-76224337D01*
X109387040Y-76224337D02*
X109315611Y-76248147D01*
X109101326Y-76724337D02*
X109101326Y-76224337D01*
X109101326Y-76224337D02*
X108934659Y-76581480D01*
X108934659Y-76581480D02*
X108767993Y-76224337D01*
X108767993Y-76224337D02*
X108767993Y-76724337D01*
X108553706Y-76581480D02*
X108315611Y-76581480D01*
X108601325Y-76724337D02*
X108434659Y-76224337D01*
X108434659Y-76224337D02*
X108267992Y-76724337D01*
X108101326Y-76533861D02*
X107720374Y-76533861D01*
X107315611Y-76462432D02*
X107482278Y-76462432D01*
X107482278Y-76724337D02*
X107482278Y-76224337D01*
X107482278Y-76224337D02*
X107244183Y-76224337D01*
X107053707Y-76724337D02*
X107053707Y-76391004D01*
X107053707Y-76224337D02*
X107077516Y-76248147D01*
X107077516Y-76248147D02*
X107053707Y-76271956D01*
X107053707Y-76271956D02*
X107029897Y-76248147D01*
X107029897Y-76248147D02*
X107053707Y-76224337D01*
X107053707Y-76224337D02*
X107053707Y-76271956D01*
X106744183Y-76724337D02*
X106791802Y-76700528D01*
X106791802Y-76700528D02*
X106815612Y-76652908D01*
X106815612Y-76652908D02*
X106815612Y-76224337D01*
X106625135Y-76391004D02*
X106434659Y-76391004D01*
X106553707Y-76224337D02*
X106553707Y-76652908D01*
X106553707Y-76652908D02*
X106529897Y-76700528D01*
X106529897Y-76700528D02*
X106482278Y-76724337D01*
X106482278Y-76724337D02*
X106434659Y-76724337D01*
X106077517Y-76700528D02*
X106125136Y-76724337D01*
X106125136Y-76724337D02*
X106220374Y-76724337D01*
X106220374Y-76724337D02*
X106267993Y-76700528D01*
X106267993Y-76700528D02*
X106291802Y-76652908D01*
X106291802Y-76652908D02*
X106291802Y-76462432D01*
X106291802Y-76462432D02*
X106267993Y-76414813D01*
X106267993Y-76414813D02*
X106220374Y-76391004D01*
X106220374Y-76391004D02*
X106125136Y-76391004D01*
X106125136Y-76391004D02*
X106077517Y-76414813D01*
X106077517Y-76414813D02*
X106053707Y-76462432D01*
X106053707Y-76462432D02*
X106053707Y-76510051D01*
X106053707Y-76510051D02*
X106291802Y-76557670D01*
X105839422Y-76724337D02*
X105839422Y-76391004D01*
X105839422Y-76486242D02*
X105815612Y-76438623D01*
X105815612Y-76438623D02*
X105791803Y-76414813D01*
X105791803Y-76414813D02*
X105744184Y-76391004D01*
X105744184Y-76391004D02*
X105696565Y-76391004D01*
X105196565Y-76391004D02*
X105077517Y-76724337D01*
X105077517Y-76724337D02*
X104958470Y-76391004D01*
X104506089Y-76724337D02*
X104791803Y-76724337D01*
X104648946Y-76724337D02*
X104648946Y-76224337D01*
X104648946Y-76224337D02*
X104696565Y-76295766D01*
X104696565Y-76295766D02*
X104744184Y-76343385D01*
X104744184Y-76343385D02*
X104791803Y-76367194D01*
X109482278Y-77029309D02*
X109387040Y-77029309D01*
X109387040Y-77029309D02*
X109339421Y-77053119D01*
X109339421Y-77053119D02*
X109291802Y-77100738D01*
X109291802Y-77100738D02*
X109267992Y-77195976D01*
X109267992Y-77195976D02*
X109267992Y-77362642D01*
X109267992Y-77362642D02*
X109291802Y-77457880D01*
X109291802Y-77457880D02*
X109339421Y-77505500D01*
X109339421Y-77505500D02*
X109387040Y-77529309D01*
X109387040Y-77529309D02*
X109482278Y-77529309D01*
X109482278Y-77529309D02*
X109529897Y-77505500D01*
X109529897Y-77505500D02*
X109577516Y-77457880D01*
X109577516Y-77457880D02*
X109601325Y-77362642D01*
X109601325Y-77362642D02*
X109601325Y-77195976D01*
X109601325Y-77195976D02*
X109577516Y-77100738D01*
X109577516Y-77100738D02*
X109529897Y-77053119D01*
X109529897Y-77053119D02*
X109482278Y-77029309D01*
X109053706Y-77267404D02*
X108887039Y-77267404D01*
X108815611Y-77529309D02*
X109053706Y-77529309D01*
X109053706Y-77529309D02*
X109053706Y-77029309D01*
X109053706Y-77029309D02*
X108815611Y-77029309D01*
X108577515Y-77529309D02*
X108482277Y-77529309D01*
X108482277Y-77529309D02*
X108434658Y-77505500D01*
X108434658Y-77505500D02*
X108410849Y-77481690D01*
X108410849Y-77481690D02*
X108363230Y-77410261D01*
X108363230Y-77410261D02*
X108339420Y-77315023D01*
X108339420Y-77315023D02*
X108339420Y-77124547D01*
X108339420Y-77124547D02*
X108363230Y-77076928D01*
X108363230Y-77076928D02*
X108387039Y-77053119D01*
X108387039Y-77053119D02*
X108434658Y-77029309D01*
X108434658Y-77029309D02*
X108529896Y-77029309D01*
X108529896Y-77029309D02*
X108577515Y-77053119D01*
X108577515Y-77053119D02*
X108601325Y-77076928D01*
X108601325Y-77076928D02*
X108625134Y-77124547D01*
X108625134Y-77124547D02*
X108625134Y-77243595D01*
X108625134Y-77243595D02*
X108601325Y-77291214D01*
X108601325Y-77291214D02*
X108577515Y-77315023D01*
X108577515Y-77315023D02*
X108529896Y-77338833D01*
X108529896Y-77338833D02*
X108434658Y-77338833D01*
X108434658Y-77338833D02*
X108387039Y-77315023D01*
X108387039Y-77315023D02*
X108363230Y-77291214D01*
X108363230Y-77291214D02*
X108339420Y-77243595D01*
X108148944Y-77505500D02*
X108077516Y-77529309D01*
X108077516Y-77529309D02*
X107958468Y-77529309D01*
X107958468Y-77529309D02*
X107910849Y-77505500D01*
X107910849Y-77505500D02*
X107887040Y-77481690D01*
X107887040Y-77481690D02*
X107863230Y-77434071D01*
X107863230Y-77434071D02*
X107863230Y-77386452D01*
X107863230Y-77386452D02*
X107887040Y-77338833D01*
X107887040Y-77338833D02*
X107910849Y-77315023D01*
X107910849Y-77315023D02*
X107958468Y-77291214D01*
X107958468Y-77291214D02*
X108053706Y-77267404D01*
X108053706Y-77267404D02*
X108101325Y-77243595D01*
X108101325Y-77243595D02*
X108125135Y-77219785D01*
X108125135Y-77219785D02*
X108148944Y-77172166D01*
X108148944Y-77172166D02*
X108148944Y-77124547D01*
X108148944Y-77124547D02*
X108125135Y-77076928D01*
X108125135Y-77076928D02*
X108101325Y-77053119D01*
X108101325Y-77053119D02*
X108053706Y-77029309D01*
X108053706Y-77029309D02*
X107934659Y-77029309D01*
X107934659Y-77029309D02*
X107863230Y-77053119D01*
X107672754Y-77386452D02*
X107434659Y-77386452D01*
X107720373Y-77529309D02*
X107553707Y-77029309D01*
X107553707Y-77029309D02*
X107387040Y-77529309D01*
X107220374Y-77029309D02*
X107220374Y-77434071D01*
X107220374Y-77434071D02*
X107196564Y-77481690D01*
X107196564Y-77481690D02*
X107172755Y-77505500D01*
X107172755Y-77505500D02*
X107125136Y-77529309D01*
X107125136Y-77529309D02*
X107029898Y-77529309D01*
X107029898Y-77529309D02*
X106982279Y-77505500D01*
X106982279Y-77505500D02*
X106958469Y-77481690D01*
X106958469Y-77481690D02*
X106934660Y-77434071D01*
X106934660Y-77434071D02*
X106934660Y-77029309D01*
X106220374Y-77029309D02*
X106172755Y-77029309D01*
X106172755Y-77029309D02*
X106125136Y-77053119D01*
X106125136Y-77053119D02*
X106101326Y-77076928D01*
X106101326Y-77076928D02*
X106077517Y-77124547D01*
X106077517Y-77124547D02*
X106053707Y-77219785D01*
X106053707Y-77219785D02*
X106053707Y-77338833D01*
X106053707Y-77338833D02*
X106077517Y-77434071D01*
X106077517Y-77434071D02*
X106101326Y-77481690D01*
X106101326Y-77481690D02*
X106125136Y-77505500D01*
X106125136Y-77505500D02*
X106172755Y-77529309D01*
X106172755Y-77529309D02*
X106220374Y-77529309D01*
X106220374Y-77529309D02*
X106267993Y-77505500D01*
X106267993Y-77505500D02*
X106291802Y-77481690D01*
X106291802Y-77481690D02*
X106315612Y-77434071D01*
X106315612Y-77434071D02*
X106339421Y-77338833D01*
X106339421Y-77338833D02*
X106339421Y-77219785D01*
X106339421Y-77219785D02*
X106315612Y-77124547D01*
X106315612Y-77124547D02*
X106291802Y-77076928D01*
X106291802Y-77076928D02*
X106267993Y-77053119D01*
X106267993Y-77053119D02*
X106220374Y-77029309D01*
X105625136Y-77195976D02*
X105625136Y-77529309D01*
X105744184Y-77005500D02*
X105863231Y-77362642D01*
X105863231Y-77362642D02*
X105553708Y-77362642D01*
X105006089Y-77005500D02*
X105434660Y-77648357D01*
X104863231Y-77076928D02*
X104839422Y-77053119D01*
X104839422Y-77053119D02*
X104791803Y-77029309D01*
X104791803Y-77029309D02*
X104672755Y-77029309D01*
X104672755Y-77029309D02*
X104625136Y-77053119D01*
X104625136Y-77053119D02*
X104601327Y-77076928D01*
X104601327Y-77076928D02*
X104577517Y-77124547D01*
X104577517Y-77124547D02*
X104577517Y-77172166D01*
X104577517Y-77172166D02*
X104601327Y-77243595D01*
X104601327Y-77243595D02*
X104887041Y-77529309D01*
X104887041Y-77529309D02*
X104577517Y-77529309D01*
X104125137Y-77029309D02*
X104363232Y-77029309D01*
X104363232Y-77029309D02*
X104387041Y-77267404D01*
X104387041Y-77267404D02*
X104363232Y-77243595D01*
X104363232Y-77243595D02*
X104315613Y-77219785D01*
X104315613Y-77219785D02*
X104196565Y-77219785D01*
X104196565Y-77219785D02*
X104148946Y-77243595D01*
X104148946Y-77243595D02*
X104125137Y-77267404D01*
X104125137Y-77267404D02*
X104101327Y-77315023D01*
X104101327Y-77315023D02*
X104101327Y-77434071D01*
X104101327Y-77434071D02*
X104125137Y-77481690D01*
X104125137Y-77481690D02*
X104148946Y-77505500D01*
X104148946Y-77505500D02*
X104196565Y-77529309D01*
X104196565Y-77529309D02*
X104315613Y-77529309D01*
X104315613Y-77529309D02*
X104363232Y-77505500D01*
X104363232Y-77505500D02*
X104387041Y-77481690D01*
M02*
